<?xml version="1.0" encoding="UTF-8"?>
<svg id="Layer_2" data-name="Layer 2" xmlns="http://www.w3.org/2000/svg" viewBox="0 0 33.27 33.44">
  <defs>
    <style>
      .cls-1 {
        fill: #3067e3;
      }
    </style>
  </defs>
  <g id="Layer_1-2" data-name="Layer 1">
    <g>
      <path class="cls-1" d="M31.44,24.98c0-.34-.07-.64.04-.86,1.07-2.2,1.69-4.5,1.78-6.94.27-7.2-7.2-12.4-13.83-9.25-.96.46-1.85,1.07-2.6,1.82-2.64,2.64-3.35,6.57-2.28,10.07.93,3.03,3.39,5.03,6.34,5.98.59.19,1.19.34,1.8.46-4.96,2.6-10.83,1.82-14.27-1.65-4.36-4.39-4.31-12.58,1.13-17.66-.02-.36-.33-4.92-2.04-5.24-.72-.14-1.5.51-2.51,1.75C3.43,5.38.15,9.49,0,16.03c-.04,1.71-.07,5.31,2.14,9.06,1.47,2.51,3.7,4.58,6.64,6.15,6,3.21,11.96,2.68,17.59-1.17.46-.31.89-.67,1.55-1.17.09,1.58.16,2.95.24,4.32.98,1.23,4.89-2.9,4.27-4.6-.54-1.46-.96-2.27-.99-3.64M23.65,21.03c-2.48-.02-4.42-1.97-4.42-4.43s1.95-4.42,4.42-4.43c2.44-.01,4.46,2,4.44,4.43-.02,2.46-2.02,4.46-4.43,4.44"/>
      <path class="cls-1" d="M30.82,2.49c.01,1.16-.94,2.14-2.09,2.13-1.13,0-2.07-.92-2.1-2.06-.03-1.17.9-2.14,2.06-2.16,1.17-.02,2.12.91,2.13,2.08"/>
      <path class="cls-1" d="M20.58,2.47c.01,1.4-1.1,2.54-2.48,2.56-1.37.02-2.52-1.14-2.52-2.52C15.58,1.1,16.7,0,18.1,0c1.35,0,2.46,1.12,2.48,2.47"/>
      <rect class="cls-1" x="20.58" y="1.96" width="6.97" height="1"/>
    </g>
  </g>
</svg>