<?xml version="1.0" encoding="UTF-8"?>
<svg id="Layer_2" data-name="Layer 2" xmlns="http://www.w3.org/2000/svg" xmlns:xlink="http://www.w3.org/1999/xlink" viewBox="0 0 156.95 74.67">
  <defs>
    <style>
      .cls-1 {
        fill: #1f3872;
      }

      .cls-2 {
        clip-path: url(#clippath-2);
      }
    </style>
    <clipPath id="clippath-2">
      <path class="cls-1" d="M60.99,33.77c-1.46,0-2.47-.3-3.04-.9-.57-.6-.85-1.32-.85-2.16v-1.22c0-.84.28-1.56.85-2.16.57-.6,1.58-.9,3.04-.9s2.47.3,3.04.9c.57.6.85,1.32.85,2.16v1.22c0,.84-.28,1.56-.85,2.16-.57.6-1.58.9-3.04.9ZM71.6,33.77c-1.46,0-2.47-.3-3.04-.9-.57-.6-.85-1.32-.85-2.16v-1.22c0-.84.28-1.56.85-2.16.57-.6,1.58-.9,3.04-.9s2.47.3,3.04.9c.57.6.85,1.32.85,2.16v1.22c0,.84-.28,1.56-.85,2.16-.57.6-1.58.9-3.04.9Z"/>
    </clipPath>
  </defs>
  <g id="Layer_1-2" data-name="Layer 1">
    <g>
      <path class="cls-1" d="M75.83,17.27l-10.07-6.55-10.07,6.55c-1.07.69-1.78,1.89-1.78,3.25v7.72c0-1.36.7-2.55,1.76-3.24.01,0,.02-.01.03-.02l1.11-.72,4.76-3.1,4.19-2.72,4.19,2.72,4.76,3.1,1.11.72s.02.01.03.02c1.06.69,1.76,1.88,1.76,3.24v-7.72c0-1.36-.71-2.56-1.78-3.25Z"/>
      <path class="cls-1" d="M75.83,6.55l-10.07-6.55-10.07,6.55c-1.07.69-1.78,1.89-1.78,3.25v7.72c0-1.36.7-2.55,1.76-3.24.01,0,.02-.01.03-.02l1.11-.72,4.76-3.1,4.19-2.72,4.19,2.72,4.76,3.1,1.11.72s.02.01.03.02c1.06.69,1.76,1.88,1.76,3.24v-7.72c0-1.36-.71-2.56-1.78-3.25Z"/>
      <g>
        <path class="cls-1" d="M60.99,33.77c-1.46,0-2.47-.3-3.04-.9-.57-.6-.85-1.32-.85-2.16v-1.22c0-.84.28-1.56.85-2.16.57-.6,1.58-.9,3.04-.9s2.47.3,3.04.9c.57.6.85,1.32.85,2.16v1.22c0,.84-.28,1.56-.85,2.16-.57.6-1.58.9-3.04.9ZM71.6,33.77c-1.46,0-2.47-.3-3.04-.9-.57-.6-.85-1.32-.85-2.16v-1.22c0-.84.28-1.56.85-2.16.57-.6,1.58-.9,3.04-.9s2.47.3,3.04.9c.57.6.85,1.32.85,2.16v1.22c0,.84-.28,1.56-.85,2.16-.57.6-1.58.9-3.04.9Z"/>
        <g class="cls-2">
          <path class="cls-1" d="M73.94,33.43c-1.46,0-2.47-.3-3.04-.9-.57-.6-.85-1.32-.85-2.16v-1.22c0-.84.28-1.56.85-2.16.57-.6,1.58-.9,3.04-.9s2.47.3,3.04.9c.57.6.85,1.32.85,2.16v1.22c0,.84-.28,1.56-.85,2.16-.57.6-1.58.9-3.04.9ZM84.55,33.43c-1.46,0-2.47-.3-3.04-.9-.57-.6-.85-1.32-.85-2.16v-1.22c0-.84.28-1.56.85-2.16.57-.6,1.58-.9,3.04-.9s2.47.3,3.04.9c.57.6.85,1.32.85,2.16v1.22c0,.84-.28,1.56-.85,2.16-.57.6-1.58.9-3.04.9Z"/>
        </g>
      </g>
      <path class="cls-1" d="M8.58,64.78c-1.51,0-2.91-.3-4.22-.91s-2.36-1.54-3.16-2.78c-.8-1.25-1.2-2.82-1.2-4.71,0-2.61.74-4.58,2.22-5.9,1.48-1.32,3.56-2.22,6.24-2.7,2.68-.47,5.79-.75,9.35-.83v-1.54c0-1.84-.41-3.09-1.22-3.77-.81-.68-1.83-1.01-3.04-1.01-1.41,0-2.56.36-3.45,1.07-.89.72-1.33,1.88-1.33,3.48H1.57c0-2.38.5-4.28,1.51-5.7,1-1.42,2.41-2.44,4.22-3.04s3.89-.91,6.25-.91c1.7,0,3.26.15,4.67.45,1.41.3,2.64.82,3.68,1.55,1.04.74,1.85,1.74,2.41,3,.56,1.27.84,2.85.84,4.74v18.99h-7.05l-.2-3.62c-1.16,1.47-2.5,2.53-4.03,3.18-1.53.65-3.29.97-5.28.97ZM11.19,59.48c1.33,0,2.58-.36,3.73-1.09,1.15-.72,2.08-1.59,2.8-2.6v-4.61c-3.73.02-6.34.4-7.83,1.15-1.49.74-2.23,1.96-2.23,3.64,0,1.18.32,2.06.96,2.64.64.58,1.5.87,2.58.87Z"/>
      <path class="cls-1" d="M31.49,64.26v-28.3h7.37l.14,4.87c.72-1.68,1.81-2.98,3.29-3.89,1.48-.91,3.26-1.36,5.35-1.36h.55v6.47h-.7c-1.14,0-2.24.1-3.29.3-1.05.2-2.01.55-2.86,1.04-.85.49-1.59,1.17-2.2,2.04v18.82h-7.66Z"/>
      <path class="cls-1" d="M69.54,74.67v-14.5c-.99,1.43-2.18,2.56-3.57,3.39s-3.1,1.25-5.13,1.25-3.86-.53-5.5-1.58c-1.63-1.05-2.93-2.65-3.89-4.8s-1.44-4.86-1.44-8.15.49-6.13,1.46-8.31,2.32-3.79,4.05-4.86c1.72-1.06,3.69-1.6,5.92-1.6,1.91,0,3.54.4,4.87,1.2,1.33.8,2.41,1.85,3.22,3.15l.06-3.91h7.37v38.71h-7.42ZM62.7,58.93c1.6,0,2.96-.47,4.07-1.41,1.11-.94,1.94-2.01,2.48-3.2v-8.35c-.56-1.28-1.35-2.36-2.36-3.26-1.02-.9-2.24-1.35-3.67-1.35-1.76,0-3.09.76-3.99,2.29-.9,1.53-1.35,3.74-1.35,6.64s.41,5.04,1.23,6.48c.82,1.44,2.02,2.16,3.58,2.16Z"/>
      <path class="cls-1" d="M90.51,64.78c-1.51,0-2.91-.3-4.22-.91s-2.36-1.54-3.16-2.78c-.8-1.25-1.2-2.82-1.2-4.71,0-2.61.74-4.58,2.22-5.9,1.48-1.32,3.56-2.22,6.24-2.7,2.68-.47,5.79-.75,9.35-.83v-1.54c0-1.84-.41-3.09-1.22-3.77-.81-.68-1.83-1.01-3.04-1.01-1.41,0-2.56.36-3.45,1.07-.89.72-1.33,1.88-1.33,3.48h-7.19c0-2.38.5-4.28,1.51-5.7,1-1.42,2.41-2.44,4.22-3.04s3.89-.91,6.25-.91c1.7,0,3.26.15,4.67.45,1.41.3,2.64.82,3.68,1.55,1.04.74,1.85,1.74,2.41,3,.56,1.27.84,2.85.84,4.74v18.99h-7.05l-.2-3.62c-1.16,1.47-2.5,2.53-4.03,3.18-1.53.65-3.29.97-5.28.97ZM93.12,59.48c1.33,0,2.58-.36,3.73-1.09,1.15-.72,2.08-1.59,2.8-2.6v-4.61c-3.73.02-6.34.4-7.83,1.15-1.49.74-2.23,1.96-2.23,3.64,0,1.18.32,2.06.96,2.64.64.58,1.5.87,2.58.87Z"/>
      <path class="cls-1" d="M113.42,64.26v-28.3h7.42l.12,4.23c.89-1.22,2.1-2.29,3.62-3.2,1.53-.92,3.41-1.38,5.66-1.38,2.82,0,4.99.89,6.51,2.67,1.52,1.78,2.28,4.3,2.28,7.57v18.41h-7.66v-17.46c0-1-.12-1.89-.35-2.65-.23-.76-.63-1.35-1.19-1.77-.56-.42-1.3-.62-2.23-.62-1.35,0-2.57.35-3.65,1.06-1.08.71-2.04,1.56-2.87,2.57v18.88h-7.66ZM149.29,64.26v-17.46c0-1-.12-1.89-.36-2.65-.24-.76-.64-1.35-1.2-1.77-.56-.42-1.3-.62-2.23-.62-1.33,0-2.56.34-3.68,1.02-1.12.68-2.1,1.5-2.93,2.46l-.84-4.84c1.16-1.3,2.58-2.42,4.25-3.36,1.67-.95,3.64-1.42,5.9-1.42,2.8,0,4.96.89,6.48,2.67,1.52,1.78,2.28,4.3,2.28,7.57v18.41h-7.66Z"/>
    </g>
  </g>
</svg>